<svg width="80" height="80" viewBox="0 0 80 80" fill="none" xmlns="http://www.w3.org/2000/svg">
<g filter="url(#filter0_d_1056_98)">
<path d="M76 36C76 55.8823 59.8823 72 40 72C20.1177 72 4 55.8823 4 36C4 16.1177 20.1177 0 40 0C59.8823 0 76 16.1177 76 36Z" fill="#3FAECC"/>
</g>
<path d="M48.9125 59.4621C46.5141 59.4482 44.2548 58.7808 42.072 57.8493C37.1501 55.7637 32.9096 52.6633 29.0305 49.0414C25.6937 45.9271 22.7392 42.486 20.3061 38.6069C18.5751 35.8401 17.1222 32.9343 16.3714 29.7365C16.0099 28.1863 15.7875 26.6221 16.149 25.0302C16.3089 24.335 16.5661 23.7024 17.0805 23.2019C18.0607 22.2425 18.9992 21.2276 20.0419 20.3378C21.1403 19.3993 22.4472 18.8501 23.9001 19.3854C24.637 19.6565 25.3739 20.0875 25.9579 20.6158C27.6332 22.1452 28.9958 23.9249 29.7674 26.1007C30.2471 27.4563 30.0246 28.7285 29.1209 29.8408C28.5509 30.5429 27.9182 31.1894 27.2787 31.8359C26.7504 32.3642 26.5557 32.9621 26.6878 33.6851C26.9033 34.8669 27.4733 35.8888 28.2033 36.7994C29.4546 38.3636 30.7267 39.9208 32.0962 41.3806C34.1678 43.5913 36.3715 45.6629 38.8672 47.3939C39.7848 48.0334 40.7442 48.5965 41.8634 48.8259C42.642 48.9858 43.2885 48.7912 43.8377 48.2003C44.2896 47.7137 44.7762 47.2687 45.2558 46.8099C46.7088 45.4126 48.3633 45.0929 50.1985 45.9549C52.2423 46.9142 54.0776 48.1933 55.4679 49.9869C56.8583 51.7804 56.8513 53.5601 55.4054 55.3119C54.4321 56.4937 53.3129 57.5573 52.2076 58.6209C51.575 59.2327 50.7129 59.3578 49.8718 59.4621C49.5659 59.4899 49.2392 59.4621 48.9125 59.4621Z" fill="white"/>
<path d="M38.3598 14.8252C41.641 14.8947 44.6928 15.7845 47.5361 17.3626C52.0269 19.8513 55.5514 23.348 58.0888 27.811C59.8198 30.8489 60.7652 34.1162 60.7096 37.6269C60.6957 38.4263 60.5914 39.2466 60.362 40.0113C60.0492 41.0541 58.9647 41.6171 57.9011 41.4503C56.8166 41.2765 56.0172 40.4284 55.9685 39.337C55.9477 38.7878 56.0311 38.2386 56.0589 37.6894C56.184 34.6863 55.2247 31.9821 53.6675 29.4794C51.582 26.1217 48.8222 23.4245 45.3672 21.4849C42.7255 19.9973 39.917 19.2117 36.8513 19.608C35.7112 19.754 34.7936 19.2534 34.3417 18.3428C33.9246 17.5016 34.0706 16.4867 34.7032 15.7637C35.1203 15.291 35.6834 15.0755 36.2813 14.999C36.9695 14.9086 37.6646 14.8808 38.3598 14.8252Z" fill="white"/>
<path d="M38.784 23.4385C39.9519 23.5845 41.224 23.932 42.4545 24.4465C45.9999 25.9411 48.6832 28.3881 50.5046 31.7736C51.3179 33.2821 51.8463 34.888 52.1174 36.5772C52.319 37.8424 51.5752 38.9964 50.3795 39.2745C49.1281 39.5734 47.9811 38.8991 47.5988 37.6269C47.4806 37.2237 47.3902 36.8136 47.2998 36.4034C46.8341 34.2623 45.694 32.5174 44.1299 31.0089C42.5101 29.4448 40.5845 28.5132 38.3808 28.0961C37.1017 27.8598 36.3995 27.1298 36.2744 26.0732C36.0937 24.6064 37.1225 23.4524 38.784 23.4385Z" fill="white"/>
<defs>
<filter id="filter0_d_1056_98" x="0" y="0" width="80" height="80" filterUnits="userSpaceOnUse" color-interpolation-filters="sRGB">
<feFlood flood-opacity="0" result="BackgroundImageFix"/>
<feColorMatrix in="SourceAlpha" type="matrix" values="0 0 0 0 0 0 0 0 0 0 0 0 0 0 0 0 0 0 127 0" result="hardAlpha"/>
<feOffset dy="4"/>
<feGaussianBlur stdDeviation="2"/>
<feComposite in2="hardAlpha" operator="out"/>
<feColorMatrix type="matrix" values="0 0 0 0 0 0 0 0 0 0 0 0 0 0 0 0 0 0 0.45 0"/>
<feBlend mode="normal" in2="BackgroundImageFix" result="effect1_dropShadow_1056_98"/>
<feBlend mode="normal" in="SourceGraphic" in2="effect1_dropShadow_1056_98" result="shape"/>
</filter>
</defs>
</svg>
