<svg width="64" height="64" viewBox="0 0 64 64" fill="none" xmlns="http://www.w3.org/2000/svg">
<g filter="url(#filter0_d_937_470)">
<path d="M59.2328 27.6164C59.2328 42.8685 46.8685 55.2328 31.6164 55.2328C16.3643 55.2328 4 42.8685 4 27.6164C4 12.3643 16.3643 0 31.6164 0C46.8685 0 59.2328 12.3643 59.2328 27.6164Z" fill="white"/>
</g>
<g filter="url(#filter1_d_937_470)">
<path fill-rule="evenodd" clip-rule="evenodd" d="M31.6164 54.2328C46.3162 54.2328 58.2328 42.3162 58.2328 27.6164C58.2328 12.9166 46.3162 1 31.6164 1C16.9166 1 5 12.9166 5 27.6164C5 42.3162 16.9166 54.2328 31.6164 54.2328ZM31.6164 55.2328C46.8685 55.2328 59.2328 42.8685 59.2328 27.6164C59.2328 12.3643 46.8685 0 31.6164 0C16.3643 0 4 12.3643 4 27.6164C4 42.8685 16.3643 55.2328 31.6164 55.2328Z" fill="#E8E8E8" fill-opacity="0.15" shape-rendering="crispEdges"/>
</g>
<path d="M37.3757 29.7568L38.0631 25.1587H33.7652V22.1749C33.7652 20.9169 34.3656 19.6907 36.2905 19.6907H38.2444V15.776C38.2444 15.776 36.4713 15.4653 34.776 15.4653C31.2365 15.4653 28.9229 17.6676 28.9229 21.6543V25.1587H24.9885V29.7568H28.9229V40.8724H33.7652V29.7568H37.3757Z" fill="#6D3A33"/>
<defs>
<filter id="filter0_d_937_470" x="0" y="0" width="63.2329" height="63.2329" filterUnits="userSpaceOnUse" color-interpolation-filters="sRGB">
<feFlood flood-opacity="0" result="BackgroundImageFix"/>
<feColorMatrix in="SourceAlpha" type="matrix" values="0 0 0 0 0 0 0 0 0 0 0 0 0 0 0 0 0 0 127 0" result="hardAlpha"/>
<feOffset dy="4"/>
<feGaussianBlur stdDeviation="2"/>
<feComposite in2="hardAlpha" operator="out"/>
<feColorMatrix type="matrix" values="0 0 0 0 0 0 0 0 0 0 0 0 0 0 0 0 0 0 0.25 0"/>
<feBlend mode="normal" in2="BackgroundImageFix" result="effect1_dropShadow_937_470"/>
<feBlend mode="normal" in="SourceGraphic" in2="effect1_dropShadow_937_470" result="shape"/>
</filter>
<filter id="filter1_d_937_470" x="0" y="0" width="63.2329" height="63.2329" filterUnits="userSpaceOnUse" color-interpolation-filters="sRGB">
<feFlood flood-opacity="0" result="BackgroundImageFix"/>
<feColorMatrix in="SourceAlpha" type="matrix" values="0 0 0 0 0 0 0 0 0 0 0 0 0 0 0 0 0 0 127 0" result="hardAlpha"/>
<feOffset dy="4"/>
<feGaussianBlur stdDeviation="2"/>
<feComposite in2="hardAlpha" operator="out"/>
<feColorMatrix type="matrix" values="0 0 0 0 0 0 0 0 0 0 0 0 0 0 0 0 0 0 0.25 0"/>
<feBlend mode="normal" in2="BackgroundImageFix" result="effect1_dropShadow_937_470"/>
<feBlend mode="normal" in="SourceGraphic" in2="effect1_dropShadow_937_470" result="shape"/>
</filter>
</defs>
</svg>
