<svg width="24" height="24" viewBox="0 0 24 24" fill="none" xmlns="http://www.w3.org/2000/svg">
<path fill-rule="evenodd" clip-rule="evenodd" d="M11.9998 21H6.99979V19H10.1911L7.19479 14.227C6.98879 13.9 6.79179 13.565 6.61579 13.222C5.34879 10.739 4.01479 7.08802 7.04779 4.05302C8.35779 2.74202 10.1158 2.02002 11.9998 2.02002C13.8828 2.02002 15.6418 2.74202 16.9518 4.05202C20.0018 7.10402 18.6378 10.788 17.3468 13.293C17.1948 13.589 17.0238 13.879 16.8468 14.162L13.8088 19H16.9998V21H11.9998ZM8.46179 5.46602C9.39379 4.53302 10.6498 4.02002 11.9998 4.02002C13.3498 4.02002 14.6048 4.53302 15.5378 5.46602C17.1988 7.12802 17.2088 9.19502 15.5678 12.377C15.4418 12.624 15.2978 12.865 15.1518 13.099L11.9998 18.12L8.88779 13.163C8.71379 12.886 8.54479 12.603 8.39679 12.312C6.79079 9.16702 6.81079 7.11902 8.46179 5.46602ZM8.99979 9.00002C8.99979 10.654 10.3458 12 11.9998 12C13.6538 12 14.9998 10.654 14.9998 9.00002C14.9998 7.34602 13.6538 6.00002 11.9998 6.00002C10.3458 6.00002 8.99979 7.34602 8.99979 9.00002ZM10.9998 9.00002C10.9998 8.44902 11.4488 8.00002 11.9998 8.00002C12.5508 8.00002 12.9998 8.44902 12.9998 9.00002C12.9998 9.55102 12.5508 10 11.9998 10C11.4488 10 10.9998 9.55102 10.9998 9.00002Z" fill="#6D3A33"/>
</svg>
