<svg width="64" height="64" viewBox="0 0 64 64" fill="none" xmlns="http://www.w3.org/2000/svg">
<g filter="url(#filter0_d_937_473)">
<path d="M59.9999 27.6164C59.9999 42.8685 47.6356 55.2328 32.3835 55.2328C17.1314 55.2328 4.76709 42.8685 4.76709 27.6164C4.76709 12.3643 17.1314 0 32.3835 0C47.6356 0 59.9999 12.3643 59.9999 27.6164Z" fill="white"/>
<path fill-rule="evenodd" clip-rule="evenodd" d="M32.3835 54.2328C47.0833 54.2328 58.9999 42.3162 58.9999 27.6164C58.9999 12.9166 47.0833 1 32.3835 1C17.6837 1 5.76709 12.9166 5.76709 27.6164C5.76709 42.3162 17.6837 54.2328 32.3835 54.2328ZM32.3835 55.2328C47.6356 55.2328 59.9999 42.8685 59.9999 27.6164C59.9999 12.3643 47.6356 0 32.3835 0C17.1314 0 4.76709 12.3643 4.76709 27.6164C4.76709 42.8685 17.1314 55.2328 32.3835 55.2328Z" fill="#E8E8E8" fill-opacity="0.15"/>
<path d="M44.5349 23.3418C44.5349 22.0451 44.2468 21.3246 43.9586 20.4601C43.6704 19.7397 43.2382 19.0193 42.6618 18.4429C42.0855 17.7225 41.3651 17.4343 40.6446 17.1462C39.9242 16.858 39.0597 16.7139 37.7629 16.5698C36.4661 16.5698 36.0339 16.5698 32.864 16.5698C29.8382 16.5698 29.4059 16.5698 28.1092 16.5698C26.8124 16.5698 26.092 16.858 25.2275 17.1462C24.507 17.4343 23.7866 17.8666 23.2103 18.4429C22.6339 19.1634 22.2017 19.7397 21.9135 20.6042C21.6253 21.3246 21.4812 22.1892 21.3372 23.3418C21.3372 24.6386 21.3372 25.0709 21.3372 28.0967C21.3372 31.2666 21.3372 31.6988 21.3372 32.8515C21.3372 34.1483 21.6253 34.8687 21.9135 35.7332C22.2017 36.4536 22.6339 37.1741 23.2103 37.7504C23.9307 38.4708 24.507 38.759 25.2275 39.0472C25.9479 39.3353 26.8124 39.4794 28.1092 39.6235C29.4059 39.6235 29.6941 39.6235 32.864 39.6235C36.0339 39.6235 36.4661 39.6235 37.6188 39.6235C38.9156 39.6235 39.636 39.3353 40.5005 39.0472C41.221 38.759 41.9414 38.3267 42.5177 37.7504C43.2382 37.03 43.5263 36.4536 43.8145 35.7332C44.1027 35.0128 44.2468 34.1483 44.3909 32.8515C44.5349 31.5547 44.3909 31.2666 44.3909 28.0967C44.3909 24.9268 44.5349 24.6386 44.5349 23.3418ZM32.864 34.1483C29.55 34.1483 26.9565 31.4106 26.9565 28.2408C26.9565 24.9268 29.6941 22.3332 32.864 22.3332C36.178 22.3332 38.7715 25.0709 38.7715 28.2408C38.9156 31.4106 36.178 34.1483 32.864 34.1483ZM39.0597 23.3418C38.3393 23.3418 37.6188 22.7655 37.6188 21.901C37.6188 21.1806 38.1952 20.4601 39.0597 20.4601C39.7801 20.4601 40.5005 21.0365 40.5005 21.901C40.5005 22.7655 39.9242 23.3418 39.0597 23.3418Z" fill="#6D3A33"/>
<path d="M36.753 28.0968C36.753 30.2581 35.024 31.9871 32.8627 31.9871C30.7014 31.9871 28.9724 30.2581 28.9724 28.0968C28.9724 25.9355 30.8455 24.3506 32.8627 24.3506C35.024 24.3506 36.753 26.0796 36.753 28.0968Z" fill="#6D3A33"/>
</g>
<defs>
<filter id="filter0_d_937_473" x="0.76709" y="0" width="63.2329" height="63.2329" filterUnits="userSpaceOnUse" color-interpolation-filters="sRGB">
<feFlood flood-opacity="0" result="BackgroundImageFix"/>
<feColorMatrix in="SourceAlpha" type="matrix" values="0 0 0 0 0 0 0 0 0 0 0 0 0 0 0 0 0 0 127 0" result="hardAlpha"/>
<feOffset dy="4"/>
<feGaussianBlur stdDeviation="2"/>
<feComposite in2="hardAlpha" operator="out"/>
<feColorMatrix type="matrix" values="0 0 0 0 0 0 0 0 0 0 0 0 0 0 0 0 0 0 0.25 0"/>
<feBlend mode="normal" in2="BackgroundImageFix" result="effect1_dropShadow_937_473"/>
<feBlend mode="normal" in="SourceGraphic" in2="effect1_dropShadow_937_473" result="shape"/>
</filter>
</defs>
</svg>
