<svg width="172" height="54" viewBox="0 0 172 54" fill="none" xmlns="http://www.w3.org/2000/svg">
<path d="M72.3681 37.4889C70.1631 37.4889 68.4201 40.1349 68.4201 43.4949V51.0969C68.4201 52.0419 69.9321 52.1679 70.5411 52.1679V52.7769H62.3511V52.1679C62.9601 52.1679 64.4721 52.0419 64.4721 51.0969V33.2049C64.4721 32.2599 62.9601 32.1339 62.3511 32.1339V31.5249H64.4721C66.9921 31.5249 68.4201 29.3829 68.4201 32.8269C68.4201 34.0659 68.4201 35.9769 68.4201 40.0089C69.1761 38.1609 70.6671 36.7959 73.1451 36.7959C76.7571 36.7959 79.3191 39.3999 79.3191 43.4739V51.0759C79.3191 52.0209 80.8311 52.1469 81.4401 52.1469V52.7559H73.2501V52.1469C73.8591 52.1469 75.3711 52.0209 75.3711 51.0759V43.4739C75.4131 41.4159 75.1611 37.4889 72.3681 37.4889Z" fill="white"/>
<path d="M90.0292 36.8379C93.8512 36.8379 97.3582 39.8409 97.3582 45.1539C97.3582 50.4669 93.8512 53.4699 90.0292 53.4699C86.2492 53.4699 82.7002 50.4669 82.7002 45.1539C82.7002 39.8409 86.2282 36.8379 90.0292 36.8379ZM92.5702 52.3359C95.1742 51.3699 94.1872 45.5529 93.3052 43.4319C92.4232 41.3109 89.7562 37.2159 87.2362 38.0979C84.6532 39.0429 85.8712 44.3979 86.6902 46.6449C87.5092 48.8709 89.9662 53.3019 92.5702 52.3359Z" fill="white"/>
<path d="M106.787 52.756H98.5972V52.1471C99.2062 52.1471 100.718 52.021 100.718 51.076V39.253C100.718 38.308 99.2062 38.1821 98.5972 38.1821V37.573H100.718C103.238 37.573 104.666 35.4101 104.666 38.8751C104.666 38.9381 104.666 39.0221 104.666 39.1691C104.75 38.9591 104.876 38.7701 105.002 38.6021C106.724 36.2081 110.462 36.481 111.617 37.993C112.73 39.505 111.197 42.1511 109.37 39.9251C106.367 36.2501 104.666 38.77 104.666 42.886V51.0341C104.666 51.9791 106.178 52.1051 106.787 52.1051V52.756Z" fill="white"/>
<path d="M113.213 52.1469C113.822 52.1469 115.334 52.0209 115.334 51.0759V39.2529C115.334 38.3079 113.822 38.1819 113.213 38.1819V37.5729H115.334C117.854 37.5729 119.282 35.4099 119.282 38.8749V51.0549C119.282 51.9999 120.794 52.1259 121.403 52.1259V52.7349H113.213V52.1469ZM117.308 31.5459C118.4 31.5459 119.282 32.4279 119.282 33.5199C119.282 34.6119 118.4 35.4939 117.308 35.4939C116.216 35.4939 115.334 34.6119 115.334 33.5199C115.334 32.4279 116.216 31.5459 117.308 31.5459Z" fill="white"/>
<path d="M122.621 41.542L123.23 37.594C129.152 37.594 128.984 37.594 134.906 37.594V38.203L126.632 52.147H131.462C133.919 52.147 134.486 49.417 134.654 48.808H135.263L134.654 52.756C128.732 52.756 128.627 52.756 122.705 52.756V52.147L130.979 38.203H126.422C123.965 38.203 123.398 40.933 123.23 41.542H122.621Z" fill="white"/>
<path d="M143.768 36.8379C147.59 36.8379 151.097 39.8409 151.097 45.1539C151.097 50.4669 147.59 53.4699 143.768 53.4699C139.988 53.4699 136.439 50.4669 136.439 45.1539C136.439 39.8409 139.988 36.8379 143.768 36.8379ZM146.309 52.3359C148.913 51.3699 147.926 45.5529 147.044 43.4319C146.162 41.3109 143.495 37.2159 140.975 38.0979C138.392 39.0429 139.61 44.3979 140.429 46.6449C141.248 48.8709 143.705 53.3019 146.309 52.3359Z" fill="white"/>
<path d="M162.353 37.4889C160.148 37.4889 158.405 40.1349 158.405 43.4949V51.0969C158.405 52.0419 159.917 52.1679 160.526 52.1679V52.7769H152.336V52.1679C152.945 52.1679 154.457 52.0419 154.457 51.0969V39.2739C154.457 38.3289 152.945 38.2029 152.336 38.2029V37.5939H154.457C156.977 37.5939 158.405 35.4309 158.405 38.8959C158.405 39.1689 158.405 39.4419 158.405 40.0089C159.161 38.1609 160.652 36.7959 163.13 36.7959C166.742 36.7959 169.325 39.3999 169.325 43.4739V51.0759C169.325 52.0209 170.837 52.1469 171.446 52.1469V52.7559H163.256V52.1469C163.865 52.1469 165.377 52.0209 165.377 51.0759V43.4739C165.377 41.4159 165.146 37.4889 162.353 37.4889Z" fill="white"/>
<path d="M79.5292 24.8469V30.9999H78.7522V28.0809H75.4972V30.9999H74.7202V24.8469H75.4972V27.4089H78.7522V24.8469H79.5292Z" fill="white"/>
<path d="M88.2862 27.9339C88.2862 29.8029 87.0262 31.1049 85.3672 31.1049C83.7082 31.1049 82.4482 29.8029 82.4482 27.9339C82.4482 26.0649 83.7082 24.7629 85.3672 24.7629C87.0262 24.7629 88.2862 26.0649 88.2862 27.9339ZM87.4882 27.9339C87.4882 26.4219 86.6902 25.4559 85.3672 25.4559C84.0442 25.4559 83.2462 26.4219 83.2462 27.9339C83.2462 29.4459 84.0442 30.4119 85.3672 30.4119C86.6902 30.4119 87.4882 29.4459 87.4882 27.9339Z" fill="white"/>
<path d="M96.0351 24.8469V28.7109C96.0351 30.2019 95.1741 31.1049 93.5991 31.1049C92.0241 31.1049 91.1631 30.2229 91.1631 28.7109V24.8469H91.9401V28.6479C91.9401 29.8869 92.4441 30.4119 93.5991 30.4119C94.7541 30.4119 95.2581 29.8869 95.2581 28.6479V24.8469H96.0351Z" fill="white"/>
<path d="M103.385 26.3799H102.608C102.398 25.7709 101.936 25.4559 101.117 25.4559C100.571 25.4559 99.7941 25.6869 99.7941 26.4009C99.7941 26.8629 99.9621 27.1149 101.222 27.4719C102.272 27.7449 103.448 28.0809 103.448 29.3619C103.448 30.5589 102.356 31.1049 101.18 31.1049C100.046 31.1049 99.1221 30.5589 98.8491 29.3619H99.6261C99.7731 30.0129 100.277 30.4119 101.18 30.4119C101.978 30.4119 102.671 30.1599 102.671 29.3619C102.671 28.5219 101.684 28.3329 101.012 28.1439C100.088 27.8919 99.0171 27.5559 99.0171 26.4009C99.0171 25.2669 100.151 24.7629 101.117 24.7629C102.356 24.7629 103.112 25.3929 103.385 26.3799Z" fill="white"/>
<path d="M110.357 30.3279V31.0209H106.346V24.8679H110.294V25.5609H107.123V27.4299H110.168V28.1229H107.123V30.3489H110.357V30.3279Z" fill="white"/>
<g opacity="0.51">
<path d="M42.7578 29.2151C42.7998 28.7951 42.8208 28.3751 42.8208 27.9341C42.8208 20.6471 36.9198 14.7461 29.6328 14.7461C22.3458 14.7461 16.4448 20.6471 16.4448 27.9341C16.4448 28.3751 16.4658 28.7951 16.5078 29.2151H42.7578Z" fill="white"/>
</g>
<path d="M59.7049 29.2151H0.463895C0.379895 29.2151 0.316895 29.1521 0.316895 29.0681V26.8001C0.316895 26.7161 0.379895 26.6531 0.463895 26.6531H59.7049C59.7889 26.6531 59.8519 26.7161 59.8519 26.8001V29.0681C59.8309 29.1521 59.7679 29.2151 59.7049 29.2151Z" fill="white"/>
<path d="M25.6848 53.008H14.0508C13.9668 53.008 13.9038 52.945 13.9038 52.861V50.593C13.9038 50.509 13.9668 50.446 14.0508 50.446H25.6848C25.7688 50.446 25.8318 50.509 25.8318 50.593V52.861C25.8318 52.945 25.7688 53.008 25.6848 53.008Z" fill="white"/>
<path d="M52.9011 38.56H41.2671C41.1831 38.56 41.1201 38.497 41.1201 38.413V36.145C41.1201 36.061 41.1831 35.998 41.2671 35.998H52.9011C52.9851 35.998 53.0481 36.061 53.0481 36.145V38.413C53.0271 38.497 52.9641 38.56 52.9011 38.56Z" fill="white"/>
<path d="M27.26 6.76611L25.034 7.27011C24.95 7.29111 24.887 7.24911 24.866 7.16511L23.438 0.80211C23.417 0.71811 23.459 0.655106 23.543 0.634106L25.769 0.130107C25.853 0.109107 25.916 0.151107 25.937 0.235107L27.365 6.5981C27.365 6.6821 27.323 6.74511 27.26 6.76611Z" fill="white"/>
<path d="M32.0481 7.62695L34.2741 8.13095C34.3581 8.15195 34.4211 8.10995 34.4421 8.02595L35.8701 1.66294C35.8911 1.57894 35.8491 1.51595 35.7651 1.49495L33.5391 0.990947C33.4551 0.969947 33.3921 1.01195 33.3711 1.09595L31.9431 7.45894C31.9221 7.52194 31.9851 7.60595 32.0481 7.62695Z" fill="white"/>
<path d="M20.435 9.47509L18.461 10.6091C18.398 10.6511 18.314 10.6301 18.272 10.5671L15.017 4.91809C14.975 4.85509 14.996 4.77109 15.059 4.72909L17.033 3.59509C17.096 3.55309 17.18 3.57409 17.222 3.63709L20.477 9.28609C20.519 9.34909 20.498 9.43309 20.435 9.47509Z" fill="white"/>
<path d="M38.8731 9.47509L40.8471 10.6091C40.9101 10.6511 40.9941 10.6301 41.0361 10.5671L44.2911 4.91809C44.3331 4.85509 44.3121 4.77109 44.2491 4.72909L42.2751 3.59509C42.2121 3.55309 42.1281 3.57409 42.0861 3.63709L38.8101 9.28609C38.7891 9.34909 38.8101 9.43309 38.8731 9.47509Z" fill="white"/>
<path d="M15.1638 13.4441L13.7358 15.2291C13.6938 15.2921 13.6098 15.2921 13.5468 15.2501L8.44383 11.1761C8.38083 11.1341 8.38083 11.0501 8.42283 10.9871L9.85083 9.20213C9.89283 9.13913 9.97683 9.13913 10.0398 9.18113L15.1428 13.2551C15.2058 13.2971 15.2058 13.3811 15.1638 13.4441Z" fill="white"/>
<path d="M44.9839 13.4441L46.4119 15.2291C46.4539 15.2921 46.5379 15.2921 46.6009 15.2501L51.7039 11.1761C51.7669 11.1341 51.7669 11.0501 51.7249 10.9871L50.2969 9.20213C50.2549 9.13913 50.1709 9.13913 50.1079 9.18113L45.0049 13.2551C44.9419 13.2971 44.9419 13.3811 44.9839 13.4441Z" fill="white"/>
<path d="M11.1112 19.492L10.6072 21.718C10.5862 21.802 10.5232 21.844 10.4392 21.823L4.07617 20.374C3.99217 20.353 3.95017 20.29 3.97117 20.206L4.47517 17.98C4.49617 17.896 4.55917 17.854 4.64317 17.875L11.0062 19.324C11.0902 19.345 11.1322 19.429 11.1112 19.492Z" fill="white"/>
<path d="M49.4781 22.621L48.2601 20.689C48.2181 20.626 48.2391 20.542 48.3021 20.5L53.8251 17.014C53.8881 16.972 53.9721 16.993 54.0141 17.056L55.2321 18.988C55.2741 19.051 55.2531 19.135 55.1901 19.177L49.6671 22.663C49.6041 22.705 49.5201 22.705 49.4781 22.621Z" fill="white"/>
<path d="M27.953 12.2889C20.708 13.0449 14.828 18.8829 14.009 26.1279C12.959 35.6199 20.372 43.6419 29.633 43.6419C29.78 43.6419 29.906 43.6419 30.053 43.6209C30.137 43.5999 30.725 43.3689 30.893 42.7809C31.082 42.1929 30.746 41.4579 30.053 41.1219C29.948 41.1009 29.822 41.0799 29.654 41.0799H29.633C22.157 41.0799 16.13 34.8429 16.466 27.2829C16.781 20.5629 22.304 15.0609 29.003 14.7459C36.563 14.3889 42.8 20.4159 42.8 27.9129C42.8 28.0599 42.779 28.1859 42.779 28.3329H45.32C45.32 28.3329 45.32 28.3329 45.341 28.3119C45.614 18.9039 37.55 11.2809 27.953 12.2889Z" fill="white"/>
</svg>
