<svg width="67" height="116" viewBox="0 0 67 116" fill="none" xmlns="http://www.w3.org/2000/svg">
<g filter="url(#filter0_dd_1056_71)">
<rect x="4" y="4.00049" width="54.9622" height="103.892" rx="27.4811" fill="#3FAECC"/>
</g>
<path d="M30.6028 66.9919L24.5282 76.1567C24.1918 76.6426 23.8304 77.0601 23.1638 77.0601C22.4411 77.0351 21.7744 76.4433 21.7744 75.6956C21.7744 75.3093 21.9551 74.948 22.1607 74.6427L29.2134 64.0325C29.5748 63.4655 29.8801 63.0543 30.6028 63.0792C31.3504 63.0792 31.6308 63.4655 31.9921 64.0325L39.0199 74.6115C39.2255 74.9231 39.4561 75.2782 39.4561 75.7205C39.4561 76.4433 38.7583 77.0601 38.0418 77.0601C37.4001 77.0351 37.0636 76.7236 36.7272 76.2127L30.6028 66.9919Z" fill="white"/>
<path d="M30.6028 48.4631L24.5282 57.6279C24.1918 58.1138 23.8304 58.5313 23.1638 58.5313C22.4411 58.5063 21.7744 57.9145 21.7744 57.1668C21.7744 56.7805 21.9551 56.4192 22.1607 56.1139L29.2134 45.5037C29.5748 44.9367 29.8801 44.5255 30.6028 44.5504C31.3504 44.5504 31.6308 44.9367 31.9921 45.5037L39.0199 56.0827C39.2255 56.3943 39.4561 56.7494 39.4561 57.1917C39.4561 57.9144 38.7583 58.5313 38.0418 58.5313C37.4001 58.5063 37.0636 58.1948 36.7272 57.6839L30.6028 48.4631Z" fill="white"/>
<path d="M30.6028 29.9338L24.5282 39.0986C24.1918 39.5845 23.8304 40.002 23.1638 40.002C22.4411 39.977 21.7744 39.3852 21.7744 38.6375C21.7744 38.2512 21.9551 37.8899 22.1607 37.5846L29.2134 26.9744C29.5748 26.4074 29.8801 25.9962 30.6028 26.0211C31.3504 26.0211 31.6308 26.4074 31.9921 26.9744L39.0199 37.5534C39.2255 37.865 39.4561 38.2201 39.4561 38.6624C39.4561 39.3852 38.7583 40.002 38.0418 40.002C37.4001 39.977 37.0636 39.6655 36.7272 39.1546L30.6028 29.9338Z" fill="white"/>
<defs>
<filter id="filter0_dd_1056_71" x="0" y="0.000488281" width="66.9622" height="115.892" filterUnits="userSpaceOnUse" color-interpolation-filters="sRGB">
<feFlood flood-opacity="0" result="BackgroundImageFix"/>
<feColorMatrix in="SourceAlpha" type="matrix" values="0 0 0 0 0 0 0 0 0 0 0 0 0 0 0 0 0 0 127 0" result="hardAlpha"/>
<feOffset dx="4"/>
<feGaussianBlur stdDeviation="2"/>
<feComposite in2="hardAlpha" operator="out"/>
<feColorMatrix type="matrix" values="0 0 0 0 0 0 0 0 0 0 0 0 0 0 0 0 0 0 0.45 0"/>
<feBlend mode="normal" in2="BackgroundImageFix" result="effect1_dropShadow_1056_71"/>
<feColorMatrix in="SourceAlpha" type="matrix" values="0 0 0 0 0 0 0 0 0 0 0 0 0 0 0 0 0 0 127 0" result="hardAlpha"/>
<feOffset dy="4"/>
<feGaussianBlur stdDeviation="2"/>
<feComposite in2="hardAlpha" operator="out"/>
<feColorMatrix type="matrix" values="0 0 0 0 0 0 0 0 0 0 0 0 0 0 0 0 0 0 0.25 0"/>
<feBlend mode="normal" in2="effect1_dropShadow_1056_71" result="effect2_dropShadow_1056_71"/>
<feBlend mode="normal" in="SourceGraphic" in2="effect2_dropShadow_1056_71" result="shape"/>
</filter>
</defs>
</svg>
